<svg xmlns="http://www.w3.org/2000/svg" xmlns:xlink="http://www.w3.org/1999/xlink" style="margin: auto; display: block;"  viewBox="0 0 100 100" preserveAspectRatio="xMidYMid">
<style type="text/css">
  .ldio-djb25c6rfk9-st0{opacity:0.8;fill:none;stroke-width:0.4811;stroke-miterlimit:10;}
  .ldio-djb25c6rfk9-st2{opacity:0.8;}
  .ldio-djb25c6rfk9-st3{fill:none;stroke-width:0.5;stroke-miterlimit:10;}
  .ldio-djb25c6rfk9-st4{fill:none;stroke-width:0.4694;stroke-miterlimit:10;}
</style>
<g style="opacity:0.5">
  <polygon stroke="#799b79" class="ldio-djb25c6rfk9-st0" points="41.5 62 30 62 24.2 72 30 82 41.5 82 47.3 72"></polygon>
  <polygon stroke="#799b79" class="ldio-djb25c6rfk9-st0" points="58.8 72 47.3 72 41.5 82 47.3 92 58.8 92 64.6 82"></polygon>
  <polygon stroke="#799b79" class="ldio-djb25c6rfk9-st0" points="76.2 62 64.6 62 58.8 72 64.6 82 76.2 82 81.9 72"></polygon>
  <polygon stroke="#799b79" class="ldio-djb25c6rfk9-st0" points="41.5 42 30 42 24.2 52 30 62 41.5 62 47.3 52"></polygon>
  <polygon stroke="#799b79" class="ldio-djb25c6rfk9-st0" points="58.8 12 47.3 12 41.5 22 47.3 32 58.8 32 64.6 22"></polygon>
  <polygon stroke="#799b79" class="ldio-djb25c6rfk9-st0" points="58.8 32 47.3 32 41.5 42 47.3 52 58.8 52 64.6 42"></polygon>
  <polygon stroke="#799b79" class="ldio-djb25c6rfk9-st0" points="76.2 22 64.6 22 58.8 32 64.6 42 76.2 42 81.9 32"></polygon>
</g>
<g>
  <path fill="#2accfc" d="M48.3 56.8l-4.4 1.5c-0.9-1.3-1.5-2.7-1.7-4.3l-1.9 0.3c0.5 2.6 1.7 5 3.6 6.9c1.9 1.9 4.3 3.1 6.9 3.6 l0.3-1.9c-1.6-0.3-3-0.9-4.3-1.7L48.3 56.8z"></path>
  <path fill="#2accfc" d="M57.8 47.2l4.4-1.5c0.9 1.3 1.5 2.7 1.7 4.3l1.9-0.3c-0.5-2.6-1.7-5-3.6-6.9c-1.9-1.9-4.3-3.1-6.9-3.6L55 41.1 c1.6 0.3 3 0.9 4.3 1.7L57.8 47.2z"></path>
  <path fill="#2accfc" d="M62.2 58.2l-4.4-1.5l1.5 4.4C58 62 56.5 62.6 55 62.9l0.3 1.9c2.6-0.5 5-1.7 6.9-3.6c1.9-1.9 3.1-4.3 3.6-6.9 L64 53.9C63.7 55.5 63.1 56.9 62.2 58.2z"></path>
  <path fill="#2accfc" d="M43.9 42.8c-1.9 1.9-3.1 4.3-3.6 6.9l1.9 0.3c0.3-1.6 0.9-3 1.7-4.3l4.4 1.5l-1.5-4.4c1.3-0.9 2.7-1.5 4.3-1.7 l-0.3-1.9C48.2 39.7 45.8 40.9 43.9 42.8z"></path>
  <animateTransform attributeName="transform" type="rotate" repeatCount="indefinite" dur="4s" keyTimes="0;1" values="0 53.064 52;360 53.064 52"></animateTransform>
</g>
<g class="ldio-djb25c6rfk9-st2">
  <path fill="#2accfc" d="M36 61.9c-1.7-3-2.7-6.4-2.7-9.9c0-10.9 8.8-19.7 19.7-19.7v1c-10.3 0-18.8 8.4-18.8 18.8 c0 3.3 0.9 6.5 2.5 9.4L36 61.9z"></path>
  <animateTransform attributeName="transform" type="rotate" repeatCount="indefinite" dur="2s" keyTimes="0;1" values="360 53.064 52;0 53.064 52"></animateTransform>
</g>
<g class="ldio-djb25c6rfk9-st2">
  <path fill="#2accfc" d="M57 75.3l-0.5-3c9.9-1.7 17.2-10.2 17.2-20.3c0-11.4-9.2-20.6-20.6-20.6S32.5 40.6 32.5 52 c0 1.6 0.2 3.2 0.5 4.7l-3 0.7c-0.4-1.8-0.6-3.6-0.6-5.4c0-13.1 10.6-23.7 23.7-23.7S76.7 38.9 76.7 52 C76.7 63.6 68.4 73.4 57 75.3z"></path>
  <animateTransform attributeName="transform" type="rotate" repeatCount="indefinite" dur="1.332s" keyTimes="0;1" values="0 53.064 52;360 53.064 52"></animateTransform>
</g>
<g>
  <path fill="#2accfc" d="M90.5 45.4c-1.5-8.8-6.2-16.8-13-22.5l0 0c-3.4-2.9-7.3-5.1-11.4-6.6s-8.5-2.3-13-2.3v2.4v1.4v2.4 c3.7 0 7.4 0.6 10.9 1.9l0.8-2.3c0 0 0 0 0 0c3.7 1.4 7.2 3.4 10.3 5.9l1.2-1.5L75 25.8c0 0 0 0 0 0l-1.5 1.8 c5.7 4.8 9.6 11.5 10.9 18.8l3.8-0.7c0 0 0 0 0 0L90.5 45.4z"></path>
  <path fill="#2accfc" d="M29.7 22l4.7 6.1c3.5-2.8 7.5-4.6 11.9-5.6l-1.7-7.5C39.2 16.2 34.2 18.5 29.7 22z"></path>
  <animateTransform attributeName="transform" type="rotate" repeatCount="indefinite" dur="2s" keyTimes="0;1" values="360 53.064 52;0 53.064 52"></animateTransform>
</g>
<g class="ldio-djb25c6rfk9-st2">
  <path fill="#2accfc" d="M53.1 92.4v-1c21.8 0 39.5-17.7 39.5-39.5c0-21.8-17.7-39.5-39.5-39.5c-15.8 0-30 9.4-36.2 23.8L15.9 36 c6.4-14.8 21-24.4 37.1-24.4c22.3 0 40.4 18.1 40.4 40.4C93.5 74.3 75.3 92.4 53.1 92.4z"></path>
  <animateTransform attributeName="transform" type="rotate" repeatCount="indefinite" dur="1.332s" keyTimes="0;1" values="0 53.064 52;360 53.064 52"></animateTransform>
</g>
<g>
    <path xmlns="http://www.w3.org/2000/svg" d="M52.9964 48.1754C55.1066 48.1754 56.8173 49.8861 56.8173 51.9963C56.8173 54.1066 55.1066 55.8173 52.9964 55.8173C50.8861 55.8173 49.1754 54.1066 49.1754 51.9963C49.1754 49.8861 50.8861 48.1754 52.9964 48.1754ZM55.8802 51.9963C55.8802 51.426 55.711 50.8684 55.3941 50.3942C55.0773 49.9199 54.6269 49.5503 54.0999 49.3321C53.573 49.1138 52.9932 49.0567 52.4338 49.168C51.8744 49.2792 51.3605 49.5539 50.9572 49.9572C50.5539 50.3605 50.2793 50.8743 50.168 51.4337C50.0567 51.9931 50.1138 52.573 50.3321 53.0999C50.5504 53.6268 50.92 54.0772 51.3942 54.3941C51.8685 54.711 52.426 54.8801 52.9964 54.8801C53.3751 54.8801 53.7501 54.8055 54.1 54.6606C54.4498 54.5157 54.7678 54.3033 55.0355 54.0355C55.3033 53.7677 55.5157 53.4498 55.6607 53.0999C55.8056 52.75 55.8802 52.375 55.8802 51.9963V51.9963Z" fill="#FFD700"/>
    <path xmlns="http://www.w3.org/2000/svg" d="M52.9964 50.7254C53.1284 50.7256 53.2549 50.7783 53.3482 50.8717C53.4415 50.9652 53.4939 51.0918 53.4939 51.2238C53.4939 51.2703 53.5124 51.3149 53.5453 51.3478C53.5782 51.3807 53.6228 51.3992 53.6693 51.3992C53.7158 51.3992 53.7604 51.3807 53.7933 51.3478C53.8262 51.3149 53.8447 51.2703 53.8447 51.2238C53.8445 51.0292 53.7776 50.8406 53.6551 50.6894C53.5327 50.5382 53.3621 50.4335 53.1718 50.3929V50.1678C53.1718 50.1212 53.1533 50.0766 53.1204 50.0437C53.0875 50.0108 53.0429 49.9924 52.9964 49.9924C52.9499 49.9924 52.9052 50.0108 52.8723 50.0437C52.8395 50.0766 52.821 50.1212 52.821 50.1678V50.3929C52.6158 50.4364 52.4339 50.5543 52.3105 50.724C52.1871 50.8936 52.1309 51.1029 52.1527 51.3115C52.1745 51.5201 52.2727 51.7133 52.4285 51.8538C52.5843 51.9942 52.7866 52.072 52.9964 52.0721C53.0949 52.0721 53.1912 52.1012 53.2731 52.1558C53.3551 52.2105 53.419 52.2882 53.4568 52.3791C53.4946 52.4701 53.5045 52.5702 53.4854 52.6669C53.4663 52.7635 53.4189 52.8523 53.3493 52.922C53.2797 52.9917 53.191 53.0392 53.0945 53.0585C52.9979 53.0778 52.8977 53.0681 52.8067 53.0304C52.7157 52.9928 52.6378 52.9291 52.583 52.8472C52.5282 52.7654 52.4989 52.6691 52.4988 52.5706C52.4988 52.5241 52.4804 52.4795 52.4475 52.4466C52.4146 52.4137 52.37 52.3952 52.3234 52.3952C52.2769 52.3952 52.2323 52.4137 52.1994 52.4466C52.1665 52.4795 52.148 52.5241 52.148 52.5706C52.1483 52.7651 52.2152 52.9536 52.3377 53.1046C52.4602 53.2557 52.6308 53.3602 52.821 53.4006V53.7336C52.821 53.7802 52.8395 53.8248 52.8723 53.8577C52.9052 53.8906 52.9499 53.909 52.9964 53.909C53.0429 53.909 53.0875 53.8906 53.1204 53.8577C53.1533 53.8248 53.1718 53.7802 53.1718 53.7336V53.4006C53.3769 53.357 53.5586 53.2391 53.6819 53.0695C53.8052 52.8999 53.8613 52.6906 53.8396 52.4821C53.8178 52.2735 53.7196 52.0804 53.5639 51.94C53.4082 51.7995 53.2061 51.7216 52.9964 51.7214C52.8643 51.7214 52.7376 51.6689 52.6442 51.5755C52.5508 51.4821 52.4984 51.3554 52.4984 51.2234C52.4984 51.0913 52.5508 50.9646 52.6442 50.8712C52.7376 50.7778 52.8643 50.7254 52.9964 50.7254V50.7254Z" fill="#BFA207"/>
    <path xmlns="http://www.w3.org/2000/svg" d="M52.9963 48.9373C51.3095 48.9373 49.9371 50.3096 49.9371 51.9964C49.9371 53.6833 51.3095 55.0555 52.9963 55.0555C54.6832 55.0555 56.0555 53.6832 56.0555 51.9964C56.0555 50.3095 54.6832 48.9373 52.9963 48.9373ZM52.9963 54.7048C51.5029 54.7048 50.2879 53.4898 50.2879 51.9964C50.2879 50.503 51.5029 49.288 52.9963 49.288C54.4897 49.288 55.7047 50.503 55.7047 51.9964C55.7047 53.4898 54.4897 54.7048 52.9963 54.7048V54.7048Z" fill="#E7C200"/>
    <animate attributeName="opacity" repeatCount="indefinite" dur="1.332s" keyTimes="0;0.4;0.5;0.9;1" values="0;0;1;1;0"></animate>
</g>
<g>
  <path fill="#2accfc" d="M39.7 28.5l0.6 1c3.9-2.2 8.3-3.4 12.8-3.4V25C48.4 25 43.7 26.2 39.7 28.5z"></path>
  <path fill="#2accfc" d="M28.6 60.6l-1.1 0.4C31.3 71.8 41.6 79 53.1 79v-1.2C42.1 77.9 32.3 70.9 28.6 60.6z"></path>
  <animateTransform attributeName="transform" type="rotate" repeatCount="indefinite" dur="4s" keyTimes="0;1" values="360 53.064 52;0 53.064 52"></animateTransform>
</g>
<g>
  <polyline stroke="#39ff39" class="ldio-djb25c6rfk9-st3" points="35.5 77.5 27.5 89.5 24 89.5"></polyline>
  <rect stroke="#39ff39" x="7" y="86" class="ldio-djb25c6rfk9-st4" width="17" height="7"></rect>
</g>
<g>
  <polyline stroke="#39ff39" class="ldio-djb25c6rfk9-st4" points="59 22 69 12 82 12"></polyline>
  <circle stroke="#39ff39" class="ldio-djb25c6rfk9-st4" cx="87" cy="12" r="5"></circle>
</g>
</svg>